<mxfile host="app.diagrams.net" modified="2024-05-10T14:48:33.030Z" agent="Mozilla/5.0 (X11; Ubuntu; Linux x86_64; rv:124.0) Gecko/20100101 Firefox/124.0" etag="bV7M6M9yUcH61DpcbOcP" version="24.3.1" type="device">
  <diagram name="Page-1" id="bvEHzXEapoQdk9BFcVOc">
    <mxGraphModel dx="2257" dy="792" grid="1" gridSize="10" guides="1" tooltips="1" connect="1" arrows="1" fold="1" page="1" pageScale="1" pageWidth="827" pageHeight="1169" math="0" shadow="0">
      <root>
        <mxCell id="0" />
        <mxCell id="1" parent="0" />
        <mxCell id="mvH7EwatJQjcA7fawZQb-4" style="edgeStyle=orthogonalEdgeStyle;rounded=0;orthogonalLoop=1;jettySize=auto;html=1;exitX=0.5;exitY=1;exitDx=0;exitDy=0;" edge="1" parent="1" source="mvH7EwatJQjcA7fawZQb-1" target="mvH7EwatJQjcA7fawZQb-2">
          <mxGeometry relative="1" as="geometry" />
        </mxCell>
        <mxCell id="mvH7EwatJQjcA7fawZQb-1" value="ccfg_load()" style="rounded=0;whiteSpace=wrap;html=1;fillColor=#f5f5f5;fontColor=#333333;strokeColor=#666666;" vertex="1" parent="1">
          <mxGeometry x="160" y="240" width="200" height="40" as="geometry" />
        </mxCell>
        <mxCell id="mvH7EwatJQjcA7fawZQb-5" style="edgeStyle=orthogonalEdgeStyle;rounded=0;orthogonalLoop=1;jettySize=auto;html=1;entryX=0.25;entryY=0;entryDx=0;entryDy=0;" edge="1" parent="1" source="mvH7EwatJQjcA7fawZQb-2" target="mvH7EwatJQjcA7fawZQb-3">
          <mxGeometry relative="1" as="geometry" />
        </mxCell>
        <mxCell id="mvH7EwatJQjcA7fawZQb-2" value="file_parse_root()" style="rounded=0;whiteSpace=wrap;html=1;fillColor=#ffe6cc;strokeColor=#d79b00;" vertex="1" parent="1">
          <mxGeometry x="160" y="360" width="200" height="40" as="geometry" />
        </mxCell>
        <mxCell id="mvH7EwatJQjcA7fawZQb-8" style="edgeStyle=orthogonalEdgeStyle;rounded=0;orthogonalLoop=1;jettySize=auto;html=1;exitX=1;exitY=0.5;exitDx=0;exitDy=0;entryX=0.5;entryY=1;entryDx=0;entryDy=0;" edge="1" parent="1" source="mvH7EwatJQjcA7fawZQb-3" target="mvH7EwatJQjcA7fawZQb-6">
          <mxGeometry relative="1" as="geometry" />
        </mxCell>
        <mxCell id="mvH7EwatJQjcA7fawZQb-10" style="edgeStyle=orthogonalEdgeStyle;rounded=0;orthogonalLoop=1;jettySize=auto;html=1;exitX=0.5;exitY=1;exitDx=0;exitDy=0;entryX=0.5;entryY=0;entryDx=0;entryDy=0;" edge="1" parent="1" source="mvH7EwatJQjcA7fawZQb-3" target="mvH7EwatJQjcA7fawZQb-9">
          <mxGeometry relative="1" as="geometry" />
        </mxCell>
        <mxCell id="mvH7EwatJQjcA7fawZQb-3" value="sequence_parse()" style="rounded=0;whiteSpace=wrap;html=1;fillColor=#f8cecc;strokeColor=#b85450;" vertex="1" parent="1">
          <mxGeometry x="210" y="480" width="200" height="40" as="geometry" />
        </mxCell>
        <mxCell id="mvH7EwatJQjcA7fawZQb-7" style="edgeStyle=orthogonalEdgeStyle;rounded=0;orthogonalLoop=1;jettySize=auto;html=1;exitX=0;exitY=0.5;exitDx=0;exitDy=0;entryX=0.75;entryY=0;entryDx=0;entryDy=0;" edge="1" parent="1" source="mvH7EwatJQjcA7fawZQb-6" target="mvH7EwatJQjcA7fawZQb-3">
          <mxGeometry relative="1" as="geometry" />
        </mxCell>
        <mxCell id="mvH7EwatJQjcA7fawZQb-6" value="file_parse_child()" style="rounded=0;whiteSpace=wrap;html=1;fillColor=#ffe6cc;strokeColor=#d79b00;" vertex="1" parent="1">
          <mxGeometry x="440" y="420" width="200" height="40" as="geometry" />
        </mxCell>
        <mxCell id="mvH7EwatJQjcA7fawZQb-15" style="edgeStyle=orthogonalEdgeStyle;rounded=0;orthogonalLoop=1;jettySize=auto;html=1;exitX=1;exitY=0.5;exitDx=0;exitDy=0;entryX=0.5;entryY=0;entryDx=0;entryDy=0;" edge="1" parent="1" source="mvH7EwatJQjcA7fawZQb-9" target="mvH7EwatJQjcA7fawZQb-12">
          <mxGeometry relative="1" as="geometry" />
        </mxCell>
        <mxCell id="mvH7EwatJQjcA7fawZQb-16" style="edgeStyle=orthogonalEdgeStyle;rounded=0;orthogonalLoop=1;jettySize=auto;html=1;exitX=0.75;exitY=1;exitDx=0;exitDy=0;entryX=0.75;entryY=0;entryDx=0;entryDy=0;" edge="1" parent="1" source="mvH7EwatJQjcA7fawZQb-9" target="mvH7EwatJQjcA7fawZQb-13">
          <mxGeometry relative="1" as="geometry" />
        </mxCell>
        <mxCell id="mvH7EwatJQjcA7fawZQb-9" value="context_get_token()" style="rounded=0;whiteSpace=wrap;html=1;fillColor=#e1d5e7;strokeColor=#9673a6;" vertex="1" parent="1">
          <mxGeometry x="210" y="600" width="200" height="40" as="geometry" />
        </mxCell>
        <mxCell id="mvH7EwatJQjcA7fawZQb-14" style="edgeStyle=orthogonalEdgeStyle;rounded=0;orthogonalLoop=1;jettySize=auto;html=1;exitX=1;exitY=0.5;exitDx=0;exitDy=0;entryX=0.25;entryY=0;entryDx=0;entryDy=0;" edge="1" parent="1" source="mvH7EwatJQjcA7fawZQb-11" target="mvH7EwatJQjcA7fawZQb-9">
          <mxGeometry relative="1" as="geometry" />
        </mxCell>
        <mxCell id="mvH7EwatJQjcA7fawZQb-11" value="context_get_token_numeral()" style="rounded=0;whiteSpace=wrap;html=1;fillColor=#e1d5e7;strokeColor=#9673a6;" vertex="1" parent="1">
          <mxGeometry x="-20" y="540" width="200" height="40" as="geometry" />
        </mxCell>
        <mxCell id="mvH7EwatJQjcA7fawZQb-12" value="context_get_token_raw()" style="rounded=0;whiteSpace=wrap;html=1;fillColor=#e1d5e7;strokeColor=#9673a6;" vertex="1" parent="1">
          <mxGeometry x="440" y="660" width="200" height="40" as="geometry" />
        </mxCell>
        <mxCell id="mvH7EwatJQjcA7fawZQb-17" style="edgeStyle=orthogonalEdgeStyle;rounded=0;orthogonalLoop=1;jettySize=auto;html=1;exitX=0.25;exitY=0;exitDx=0;exitDy=0;entryX=0.25;entryY=1;entryDx=0;entryDy=0;" edge="1" parent="1" source="mvH7EwatJQjcA7fawZQb-13" target="mvH7EwatJQjcA7fawZQb-9">
          <mxGeometry relative="1" as="geometry" />
        </mxCell>
        <mxCell id="mvH7EwatJQjcA7fawZQb-18" style="edgeStyle=orthogonalEdgeStyle;rounded=0;orthogonalLoop=1;jettySize=auto;html=1;exitX=0;exitY=0.5;exitDx=0;exitDy=0;entryX=0.5;entryY=1;entryDx=0;entryDy=0;" edge="1" parent="1" source="mvH7EwatJQjcA7fawZQb-13" target="mvH7EwatJQjcA7fawZQb-11">
          <mxGeometry relative="1" as="geometry" />
        </mxCell>
        <mxCell id="mvH7EwatJQjcA7fawZQb-19" style="edgeStyle=orthogonalEdgeStyle;rounded=0;orthogonalLoop=1;jettySize=auto;html=1;exitX=1;exitY=0.5;exitDx=0;exitDy=0;entryX=0.5;entryY=1;entryDx=0;entryDy=0;" edge="1" parent="1" source="mvH7EwatJQjcA7fawZQb-13" target="mvH7EwatJQjcA7fawZQb-12">
          <mxGeometry relative="1" as="geometry" />
        </mxCell>
        <mxCell id="mvH7EwatJQjcA7fawZQb-13" value="substitution_apply()" style="rounded=0;whiteSpace=wrap;html=1;fillColor=#dae8fc;strokeColor=#6c8ebf;" vertex="1" parent="1">
          <mxGeometry x="210" y="720" width="200" height="40" as="geometry" />
        </mxCell>
        <mxCell id="mvH7EwatJQjcA7fawZQb-20" value="" style="endArrow=none;dashed=1;html=1;dashPattern=1 3;strokeWidth=2;rounded=0;" edge="1" parent="1">
          <mxGeometry width="50" height="50" relative="1" as="geometry">
            <mxPoint x="640" y="320" as="sourcePoint" />
            <mxPoint x="-20" y="320" as="targetPoint" />
          </mxGeometry>
        </mxCell>
        <mxCell id="mvH7EwatJQjcA7fawZQb-21" value="PRIVATE INTERFACE" style="text;html=1;align=right;verticalAlign=middle;whiteSpace=wrap;rounded=0;" vertex="1" parent="1">
          <mxGeometry x="480" y="330" width="160" height="30" as="geometry" />
        </mxCell>
        <mxCell id="mvH7EwatJQjcA7fawZQb-22" value="PUBLIC INTERFACE" style="text;html=1;align=right;verticalAlign=middle;whiteSpace=wrap;rounded=0;" vertex="1" parent="1">
          <mxGeometry x="480" y="280" width="160" height="30" as="geometry" />
        </mxCell>
        <mxCell id="mvH7EwatJQjcA7fawZQb-25" style="edgeStyle=orthogonalEdgeStyle;rounded=0;orthogonalLoop=1;jettySize=auto;html=1;exitX=1;exitY=0.5;exitDx=0;exitDy=0;entryX=0;entryY=0.5;entryDx=0;entryDy=0;" edge="1" parent="1" source="mvH7EwatJQjcA7fawZQb-23" target="mvH7EwatJQjcA7fawZQb-24">
          <mxGeometry relative="1" as="geometry" />
        </mxCell>
        <mxCell id="mvH7EwatJQjcA7fawZQb-23" value="caller" style="text;html=1;align=center;verticalAlign=middle;whiteSpace=wrap;rounded=0;" vertex="1" parent="1">
          <mxGeometry x="-20" y="240" width="60" height="30" as="geometry" />
        </mxCell>
        <mxCell id="mvH7EwatJQjcA7fawZQb-24" value="called" style="text;html=1;align=center;verticalAlign=middle;whiteSpace=wrap;rounded=0;" vertex="1" parent="1">
          <mxGeometry x="70" y="240" width="60" height="30" as="geometry" />
        </mxCell>
      </root>
    </mxGraphModel>
  </diagram>
</mxfile>
